PathFileType	4	(X/Y/Z)	C:/Users/beibeiliu/ov580/test_trc/capture2\sequence.2_training_dense_right.trc
DataRate	CameraRate	NumFrames	NumMarkers	Units	OrigDataRate	OrigDataStartFrame	OrigNumFrames
120	120	18	19	mm	120	40	313
Frame#	Time	ThumbCMC			ThumbMCP			ThumbIP			ThumbTip			IndexMCP			IndexPIP			IndexTip			MiddleMCP			MiddlePIP			MiddleTip			RingMCP			RingPIP			RingTip			PinkyMCP			PinkyPIP			PinkyTip			BackHand1			BackHand2			BackHand3	
		X0	Y0	Z0	X1	Y1	Z1	X2	Y2	Z2	X3	Y3	Z3	X4	Y4	Z4	X5	Y5	Z5	X6	Y6	Z6	X7	Y7	Z7	X8	Y8	Z8	X9	Y9	Z9	X10	Y10	Z10	X11	Y11	Z11	X12	Y12	Z12	X13	Y13	Z13	X14	Y14	Z14	X15	Y15	Z15	X16	Y16	Z16	X17	Y17	Z17	X18	Y18	Z18	
39	0.325	169.338	16.0537	-14.0323	144.887	13.4895	-42.344	133.329	7.14473	-65.2307	123.738	-5.79292	-80.2503	183.974	-19.069	-77.2523	162.728	-20.5486	-101.9	132.292	-7.86461	-92.8487	174.516	-37.4163	-83.029	143.513	-32.2832	-94.3251	125.149	-14.6834	-67.9193	161.16	-55.1911	-74.177	135.471	-43.6024	-83.8511	121.619	-21.3398	-62.0907	156.01	-62.8919	-57.2514	129.077	-54.5251	-69.5372	119.481	-28.7304	-52.6024	184.708	-50.6251	-18.1411	185.787	-42.5322	11.28	198.571	-16.9952	-15.203	
40	0.333333	170.506	17.4841	-17.2854	145.278	16.3761	-40.4782	132.97	11.616	-65.1863	127.033	-6.83943	-81.8823	186.343	-16.1761	-79.2808	162.909	-20.2527	-100.622	131.634	-6.83839	-90.4571	176.073	-37.6112	-80.7036	149.722	-30.6052	-95.756	127.316	-12.652	-69.7435	165.031	-52.8762	-70.317	138.388	-42.2882	-84.4819	121.165	-23.2497	-63.7018	156.896	-64.4206	-57.177	130.827	-53.5983	-69.8486	119.105	-29.5449	-53.3935	187.701	-44.5499	-20.0315	189.876	-38.8295	9.50666	196.87	-15.0464	-14.0666	
41	0.341667	170.481	20.2075	-17.0662	144.876	22.5517	-40.5163	134.704	11.5997	-66.7106	127.14	-6.74812	-84.6515	187.588	-9.93369	-81.8496	163.384	-14.1119	-102.79	135.066	-3.40569	-95.211	177.693	-30.278	-85.6358	148.188	-27.9167	-95.6323	128.793	-11.214	-67.4199	166.461	-47.9431	-75.4042	142.047	-38.9323	-86.768	123.547	-18.6532	-61.2928	160.64	-59.8377	-56.7581	135.224	-46.2404	-72.3431	120.893	-27.9129	-55.2218	191.048	-40.6512	-18.9899	189.439	-33.5346	5.40151	199.39	-6.02678	-15.4293	
42	0.35	170.124	23.3453	-18.496	144.423	24.2252	-40.4767	132.773	16.2171	-68.5872	127.453	-4.16471	-86.4483	185.247	-7.87457	-84.2293	164.543	-10.0802	-102.239	135.036	-0.72512	-94.0307	177.862	-27.2115	-86.2253	150.976	-24.5282	-97.429	129.652	-6.63629	-70.2182	169.917	-38.6105	-75.9238	141.258	-33.1993	-87.0503	125.739	-14.1893	-67.2801	162.921	-55.2488	-59.6574	137.393	-47.1053	-74.0357	122.317	-22.4744	-55.9902	192.986	-34.4842	-21.0186	191.813	-29.6102	3.96697	199.637	-1.40137	-19.771	
43	0.358333	168.041	32.4897	-18.9049	143.451	28.1618	-41.2922	131.84	21.1215	-66.0744	127.836	2.35078	-82.1543	186.385	1.1848	-80.9442	161.005	0.853234	-105.875	134.145	6.77157	-95.7733	180.433	-16.3914	-83.2716	151.61	-12.6292	-99.6644	130.84	0.0785357	-73.8542	173.206	-32.5952	-76.6971	141.997	-25.4229	-88.2295	125.131	-12.4628	-65.3053	166.008	-48.4613	-63.9579	141.272	-38.296	-76.5321	124.724	-18.6337	-57.7923	194.506	-26.0319	-22.8004	194.885	-21.6883	2.46893	198.872	3.95007	-16.3288	
44	0.366667	166.578	34.3747	-20.7777	142.144	34.6387	-40.6354	130.368	26.8599	-65.3478	126.321	7.62533	-83.297	185.299	10.6653	-87.2879	163.144	8.94684	-105.925	131.434	10.9135	-92.3949	179.836	-7.18623	-87.698	150.047	-8.27662	-99.054	130.584	6.16788	-72.046	171.919	-25.0491	-81.5543	142.597	-18.3938	-90.176	126.346	-6.3572	-66.2199	168.395	-36.2004	-64.9522	141.408	-31.9594	-77.4182	128.502	-11.2951	-61.0522	196.997	-20.0465	-28.4057	193.717	-14.0599	4.48452	198.886	14.4362	-17.3356	
45	0.375	165.421	41.9389	-20.0992	140.263	41.6794	-44.0354	128.484	35.4658	-69.2629	125.578	14.1162	-87.6224	185.623	19.3102	-83.382	162.113	19.0127	-106.371	130.242	21.614	-92.8964	181.442	3.19464	-88.7305	153.485	2.70414	-102.495	130.831	11.6001	-72.3195	175.994	-13.9583	-79.5506	144.906	-11.2264	-91.6477	126.917	1.37788	-67.8898	170.933	-31.9343	-69.2771	147.933	-25.4476	-80.8798	125.83	-8.72174	-60.3657	196.935	-8.41124	-28.2201	197.01	-8.89767	3.71806	199.495	24.9335	-21.6282	
46	0.383333	163.582	52.5389	-20.3572	140.202	48.7964	-42.7764	127.12	41.4968	-71.1011	126.473	23.6186	-84.1359	184.495	33.4297	-86.3352	161.585	25.7147	-106.403	129.6	27.2351	-91.0476	181.473	12.199	-89.2212	151.52	11.9301	-102.391	131.324	18.3528	-72.9797	178.101	-3.92141	-82.0798	146.809	-2.47422	-93.5867	128.69	8.51046	-68.3765	173.852	-24.2229	-72.749	144.377	-17.5624	-81.1941	131.021	0.313172	-63.5326	198.01	-4.50718	-33.2775	199.499	-0.782506	-3.12063	199.585	30.0128	-21.6291	
47	0.391667	163.979	57.9834	-16.3072	137.282	59.8376	-42.6467	126.164	53.4232	-67.8564	129.06	30.9727	-84.5319	184.134	46.4734	-85.476	161.08	35.1112	-107.282	131.756	38.2328	-95.9167	181.161	21.6863	-91.7282	149.265	21.5029	-102.045	130.272	29.0463	-71.8354	179.51	5.86061	-83.4978	146.298	4.09429	-93.8609	129.69	14.696	-70.1716	176.418	-11.2683	-73.5624	150.888	-5.50347	-84.5277	131.384	8.19965	-65.6531	201.921	7.19111	-31.4112	200.978	12.5795	-0.819304	198.798	42.2276	-18.4953	
48	0.4	161.329	68.6832	-16.0751	135.798	69.1209	-39.868	126.439	60.8905	-68.4677	126.898	44.0369	-84.2002	183.687	54.4489	-89.7168	164.23	51.6173	-108.887	134.079	43.9692	-96.4471	181.304	33.7131	-92.2872	151.925	33.0074	-103.301	130.645	36.458	-72.7843	180.533	19.4887	-86.4359	151.947	14.8399	-96.766	130.059	22.2783	-66.24	179.44	-0.631334	-73.2187	151.092	-1.11963	-85.4368	133.032	15.1131	-66.5595	202.133	18.6385	-30.7661	203.145	20.2155	-4.24534	198.535	52.8668	-19.5171	
49	0.408333	161.617	75.0399	-16.5972	137.151	75.6914	-43.2152	125.741	71.9729	-64.9166	128.76	52.9328	-85.7342	183.573	66.0571	-84.6357	160.345	59.3808	-107.384	131.692	54.727	-93.7247	182.5	50.0262	-88.7044	150.047	39.9019	-101.758	131.276	43.4829	-74.017	180.766	26.8842	-87.556	152.619	27.6939	-97.3661	130.341	31.9228	-67.9971	181.735	13.2409	-73.4665	153.604	9.6077	-86.0613	133.484	22.8647	-68.3858	203.576	29.8461	-33.8219	201.416	32.3843	-4.97248	199.112	62.4826	-18.5889	
50	0.416667	158.029	86.7051	-16.351	133.314	85.8789	-39.2175	125.27	81.7932	-63.1342	128.353	64.8467	-87.5957	183.67	80.5956	-85.5536	162.203	73.555	-107.919	133.192	65.9016	-96.8937	180.238	61.6515	-92.9145	152.871	56.287	-102.846	131.653	49.9163	-72.3401	181.593	38.7127	-87.4383	152.865	36.8402	-96.8405	131.467	39.6417	-66.8361	181.594	24.4118	-75.9724	155.356	26.0262	-88.2834	134.587	29.7586	-64.3145	203.334	44.1459	-36.5111	203.538	42.7086	-5.97626	196.769	71.133	-16.8135	
51	0.425	155.575	95.4796	-10.7188	134.829	92.6611	-39.4892	125.61	88.6592	-61.7006	128.125	74.6138	-85.6762	182.808	90.531	-80.7243	163.776	84.1737	-104.332	131.247	79.2161	-95.0386	181.279	72.6833	-87.3943	152.771	67.3308	-102.431	129.206	65.8256	-70.8606	181.5	49.6086	-85.8888	148.782	51.2069	-94.9478	131.496	50.1769	-65.4327	180.933	36.3047	-77.7228	155.341	32.2345	-87.0347	133.976	43.6651	-60.8992	203.287	53.8428	-35.933	203.288	48.04	-4.32258	196.637	83.4711	-16.161	
52	0.433333	156.598	103.007	-11.0648	131.951	100.929	-36.6656	125.401	96.1234	-62.107	124.861	85.5399	-84.1557	180.366	99.7194	-83.3138	157.971	97.6846	-103.987	129.075	85.6888	-88.0445	180.26	81.5177	-89.9589	151.514	79.718	-100.891	130.408	71.4787	-70.2764	178.968	63.1809	-87.6727	149.856	60.0785	-94.4127	131.605	60.4543	-64.2871	180.857	46.0889	-76.2789	153.402	46.1089	-87.0427	134.54	53.426	-62.1338	203.729	59.2081	-34.2749	200.775	58.7177	-1.09571	195.494	88.127	-15.7596	
53	0.441667	156.557	107.598	-10.0894	130.853	107.638	-35.326	122.667	103.793	-59.249	125.212	90.139	-86.8942	180.786	108.271	-79.2105	160.825	103.379	-101.287	132.059	93.4519	-88.3479	180.74	92.1059	-87.0606	148.76	84.7713	-100.169	130.137	78.05	-71.4664	179.412	68.3131	-88.7995	150.532	66.1328	-95.2334	132.521	72.1309	-64.5729	181.577	50.3823	-76.437	154.165	49.4042	-87.7446	134.612	61.3644	-65.2482	203.746	65.0565	-31.5361	201.397	63.3233	-2.52355	196.737	97.0701	-14.8699	
54	0.45	158.403	109.11	-10.6659	134.315	109.127	-33.8646	124.703	107.955	-62.4533	124.764	96.5071	-82.5873	180.476	112.896	-83.3839	155.077	110.764	-101.014	130.728	100.755	-86.6521	180.619	96.6161	-89.2369	148.898	91.5114	-99.4455	130.236	87.5306	-72.864	179.019	76.6013	-88.3797	150.941	70.6702	-95.5893	132.93	74.3813	-67.8796	181.213	57.1998	-80.3374	153.567	58.7677	-88.1678	134.606	66.4064	-60.7794	202.408	71.8591	-34.8771	201.332	65.2006	-2.96779	198.035	101.099	-17.5987	
55	0.458333	159.544	110.46	-12.3116	136.343	111.102	-37.8862	124.449	110.742	-60.2286	127.741	95.5078	-84.5701	180.406	117.161	-81.9256	157.093	111.618	-99.9851	131.816	102.753	-85.7111	181.475	97.6445	-88.5906	151.702	94.2054	-100.113	130.974	87.1824	-68.8912	181.65	74.767	-86.5593	149.406	78.5784	-94.1395	132.582	74.0962	-65.5181	182.8	58.9993	-77.8388	153.383	58.8806	-89.0088	136.271	70.5083	-65.5611	204.556	71.6803	-35.5177	200.637	66.7681	-2.92686	197.1	104.039	-16.8195	
56	0.466667	159.695	110.134	-12.4357	134.545	110.31	-37.3206	126.593	108.984	-62.441	127.922	95.8921	-84.7633	181.308	114.203	-82.1922	159.619	113.498	-99.924	131.138	102.184	-82.9173	183.065	97.0951	-87.7543	155.374	91.268	-101.162	132.548	86.19	-72.1542	182.522	77.7639	-85.3867	151.48	72.015	-95.7021	134.69	71.1638	-67.4908	184.226	60.463	-78.2516	156.417	57.034	-90.2593	138.113	63.8131	-63.9328	204.325	69.5283	-32.8735	202.663	66.8468	-3.42986	197.625	99.7229	-17.0134	
